<?xml version="1.0" encoding="utf-8"?>
<!DOCTYPE svg PUBLIC "-//W3C//DTD SVG 1.0//EN" "http://www.w3.org/TR/2001/REC-SVG-20010904/DTD/svg10.dtd">
<svg version="1.0" xmlns="http://www.w3.org/2000/svg" width="433px" height="56px" viewBox="0 0 433 56" preserveAspectRatio="xMidYMid meet">
 <g fill="none" stroke="#3f3f3f" stroke-width="0.5">
  <path d="M18.50 44.65 c-0.40 -0.15 -0.90 -0.55 -1.10 -0.85 -0.25 -0.40 -0.40 -0.35 -0.40 0.10 0 0.30 -0.40 0.60 -0.90 0.60 -1.10 0 -5.15 -2.80 -4.95 -3.45 0.05 -0.25 -0.05 -0.40 -0.20 -0.35 -0.75 0.15 -2.40 -1.90 -3.35 -4.10 -1.65 -3.85 -1.70 -9.50 -0.10 -11.10 0.60 -0.60 0.90 -1.20 0.80 -1.45 -0.45 -0.75 3.05 -4.30 5.50 -5.65 2.80 -1.50 6.20 -2.30 6.20 -1.45 0 0.30 0.45 0.55 1 0.55 0.55 0 1 -0.20 1 -0.50 0 -1.05 2.15 -0.45 3.40 1 0.75 0.85 1.60 1.50 1.95 1.50 0.85 0 1.65 1.65 1.65 3.45 0 1.05 -0.25 1.55 -0.75 1.55 -0.40 0 -0.75 0.45 -0.75 1 0 0.55 0.35 1 0.75 1 0.55 0 0.75 0.60 0.75 2.50 0 1.90 -0.20 2.50 -0.75 2.50 -0.60 0 -0.75 0.75 -0.75 3.75 0 3.05 0.15 3.75 0.75 3.75 0.65 0 0.75 0.55 0.65 2.90 l-0.15 2.85 -2.75 0.05 c-1.55 0.05 -2.90 -0.20 -3.10 -0.50 -0.30 -0.40 -0.40 -0.35 -0.40 0.10 0 0.60 -2.55 0.80 -4 0.25z"/>
  <path d="M41.35 44.65 c-0.20 -0.15 -0.35 -0.95 -0.35 -1.75 0 -1 0.25 -1.40 0.90 -1.40 1.55 0 2.25 0.80 1.90 2.20 -0.30 1.25 -1.65 1.75 -2.45 0.95z"/>
  <path d="M58.15 44.20 c-0.20 -0.50 -0.10 -0.95 0.25 -1.10 0.75 -0.25 0.85 -18.10 0.10 -18.10 -0.25 0 -0.50 -0.35 -0.50 -0.75 0 -1.15 -2.55 -3.20 -5.10 -4.15 -1.35 -0.45 -2.40 -1 -2.40 -1.20 0 -0.25 -0.55 -0.40 -1.25 -0.40 -0.70 0 -1.25 0.20 -1.25 0.50 0 0.25 -0.80 0.60 -1.80 0.80 -1.20 0.20 -1.90 0.65 -2.05 1.25 -0.30 1.15 -1.65 1.30 -1.65 0.20 0 -0.40 -0.35 -0.75 -0.75 -0.75 -0.90 0 -1 -1.70 -0.10 -2.40 1.05 -0.90 6.75 -1.75 9.40 -1.45 1.40 0.20 3.55 0.80 4.70 1.35 l2.15 1.05 1.90 -1.15 c2.70 -1.60 9.45 -1.60 12.50 0 2.80 1.45 6.10 6.60 4.20 6.60 -0.25 0 -0.50 0.35 -0.50 0.75 0 1.45 -1.35 0.75 -1.85 -1 -0.45 -1.45 -0.45 -1.75 0.15 -1.75 1.10 0 0.80 -1 -0.30 -1.05 -1.40 -0.10 -1.60 -0.15 -2.75 -0.80 -0.55 -0.30 -1.75 -0.70 -2.60 -0.90 -0.90 -0.15 -1.65 -0.55 -1.65 -0.80 0 -0.25 -0.55 -0.45 -1.25 -0.45 -0.70 0 -1.25 0.20 -1.25 0.45 0 0.25 -0.65 0.60 -1.50 0.80 -0.80 0.20 -1.65 0.55 -1.80 0.85 -0.20 0.30 -0.35 5.85 -0.40 12.35 l-0.05 11.80 -1.15 0.15 c-0.70 0.10 -1.25 -0.15 -1.45 -0.70z"/>
  <path d="M74.50 44 c0 -0.75 0.35 -1 1.25 -1 0.90 0 1.25 0.25 1.25 1 0 0.75 -0.35 1 -1.25 1 -0.90 0 -1.25 -0.25 -1.25 -1z"/>
  <path d="M103.50 44.65 c-0.40 -0.15 -0.90 -0.55 -1.10 -0.85 -0.30 -0.40 -0.55 -0.35 -0.85 0.15 -0.85 1.30 -8.80 -1.20 -10.85 -3.50 -0.80 -0.90 -0.80 -0.95 0.20 -0.95 0.65 0 1.10 -0.30 1.10 -0.75 0 -0.50 -0.50 -0.75 -1.50 -0.75 -1.40 0 -1.50 -0.15 -1.50 -1.75 0 -2.15 0.50 -2.20 1.65 -0.25 1.70 2.80 5.50 4.80 10.95 5.70 1 0.20 1.95 0.60 2.10 0.95 0.25 0.45 0.35 0.45 0.60 0 0.35 -0.80 2.20 -0.85 2.20 -0.10 0 0.95 -1 2.45 -1.65 2.40 -0.35 0 -0.95 -0.15 -1.35 -0.30z"/>
  <path d="M166 44.65 c-0.40 -0.15 -0.95 -0.55 -1.15 -0.85 -0.30 -0.40 -0.50 -0.35 -0.70 0.10 -1 2.50 -9.15 -3.15 -11.30 -7.90 -1.50 -3.25 -1.40 -8 0.25 -11.60 1.95 -4.25 5.40 -6.40 11.60 -7.15 1.95 -0.25 2.80 -0.20 2.80 0.20 0 0.30 0.45 0.55 1 0.55 0.55 0 1 -0.20 1 -0.50 0 -0.25 0.45 -0.50 1 -0.50 0.80 0 1 0.35 1 1.50 0 1.50 -0.05 1.50 -2.70 1.50 -1.70 0 -2.80 -0.25 -2.95 -0.60 -0.20 -0.50 -0.40 -0.50 -0.70 -0.10 -0.20 0.30 -1.65 0.95 -3.15 1.35 -3.90 1.15 -7.05 4.30 -7.25 7.25 -0.05 0.95 -0.40 1.90 -0.80 2.15 -0.50 0.30 -0.55 0.55 -0.15 0.85 0.30 0.20 0.95 1.50 1.40 2.95 1.20 3.55 4.25 6.35 8.30 7.45 1.65 0.50 3 1.05 3 1.30 0 0.20 0.35 0.40 0.75 0.40 0.40 0 0.75 -0.20 0.75 -0.45 0 -0.60 2.05 -1.05 3.40 -0.70 1.05 0.25 1.55 1.85 0.75 2.30 -0.75 0.45 -5.40 0.80 -6.15 0.50z"/>
  <path d="M215.65 44.65 c-0.75 -0.30 -0.85 -2.15 -0.15 -2.15 0.30 0 0.50 -4.25 0.50 -11.75 0 -7.50 -0.20 -11.75 -0.50 -11.75 -1.20 0 -0.35 -1.10 1.40 -1.85 2.40 -1 8.75 -1.05 11.10 -0.05 2.75 1.15 4.95 3.30 5.55 5.45 0.70 2.25 0.45 2.70 -1.20 2.25 -0.80 -0.20 -1.35 -0.80 -1.55 -1.55 -0.20 -0.75 -1.10 -1.75 -2.05 -2.35 -0.95 -0.55 -1.75 -1.15 -1.75 -1.30 0 -0.20 -0.90 -0.35 -2.05 -0.40 -1.20 0 -2.20 -0.30 -2.50 -0.75 -0.25 -0.45 -0.45 -0.50 -0.45 -0.10 0 0.35 -0.80 0.75 -1.75 0.95 -0.95 0.15 -1.90 0.55 -2.05 0.80 -0.15 0.25 -0.25 5.50 -0.25 11.65 0.10 12.40 -0.15 13.80 -2.30 12.90z"/>
  <path d="M231.85 44.45 c-0.90 -0.55 -1.20 -2.45 -0.35 -2.45 0.30 0 0.50 -0.35 0.50 -0.75 0 -0.40 0.45 -0.75 1 -0.75 0.80 0 1 0.35 1 1.70 0 2 -0.90 2.95 -2.15 2.25z"/>
  <path d="M320.10 44.40 c-1 -1 -0.75 -2.90 0.40 -2.90 0.55 0 1 0.30 1 0.70 0 0.40 0.25 0.80 0.60 0.90 0.75 0.25 0.15 1.90 -0.75 1.90 -0.35 0 -0.90 -0.25 -1.25 -0.60z"/>
  <path d="M117.50 43.75 c0 -1.05 1.20 -2.25 2.25 -2.25 0.60 0 0.75 0.35 0.65 1.40 -0.10 1.05 -0.45 1.40 -1.50 1.50 -1.05 0.10 -1.40 -0.05 -1.40 -0.65z"/>
  <path d="M137.50 43.55 c0 -0.60 0.25 -1.05 0.50 -1.05 0.30 0 0.50 -4.25 0.50 -11.75 0 -6.45 -0.20 -11.75 -0.40 -11.75 -0.25 0 -0.40 -1.65 -0.40 -3.60 0.05 -3.05 0.20 -3.65 0.90 -3.80 1.20 -0.25 2.20 1.95 1.45 3.25 -0.35 0.70 -0.35 1.60 0 2.80 0.25 0.95 0.40 7.15 0.35 14.15 l-0.15 12.45 -1.35 0.15 c-1.15 0.15 -1.40 -0.05 -1.40 -0.85z"/>
  <path d="M187.75 43.55 c-1.85 -0.80 -3.85 -2.55 -3 -2.55 0.20 0 0.10 -0.35 -0.25 -0.75 -0.35 -0.40 -0.80 -0.60 -1 -0.50 -0.65 0.40 -2.85 -2.80 -3.45 -5 -0.75 -2.75 -0.70 -3.75 0.20 -3.75 0.40 0 0.75 -0.35 0.75 -0.75 0 -0.40 -0.35 -0.75 -0.75 -0.75 -0.90 0 -0.95 -0.60 -0.20 -3.25 0.60 -2.15 2.70 -5.30 3.40 -5.10 0.25 0.05 0.50 -0.10 0.55 -0.40 0.30 -1.60 3.75 -3.55 7.50 -4.25 3.80 -0.70 6.90 0.05 8.85 2.20 l1.65 1.80 0 12 0 12 -2.45 0 c-1.40 0 -2.65 -0.20 -2.80 -0.50 -0.15 -0.25 -1.40 -0.50 -2.80 -0.50 -1.35 0 -2.45 0.25 -2.45 0.50 0 0.75 -1.50 0.60 -3.75 -0.45z"/>
  <path d="M342.85 44 c-1.85 -0.55 -4.85 -2.90 -4.70 -3.60 0.05 -0.35 -0.10 -0.60 -0.40 -0.65 -0.25 0 -0.80 -0.20 -1.15 -0.40 -1.55 -1 -3.90 -7.85 -2.65 -7.85 0.30 0 0.55 -0.65 0.55 -1.50 0 -0.80 -0.20 -1.50 -0.50 -1.50 -0.75 0 -0.60 -1.55 0.45 -3.85 1.75 -3.85 7.65 -8.55 8.70 -7 0.25 0.45 0.55 0.35 1.05 -0.30 1.75 -2.30 7.75 -1.45 10.25 1.45 l1.55 1.75 -0.10 11.85 -0.15 11.85 -2.60 0.10 c-1.45 0.05 -2.65 -0.15 -2.65 -0.40 0 -0.25 -1 -0.45 -2.25 -0.45 -1.25 0 -2.25 0.25 -2.25 0.50 0 0.60 -1.20 0.60 -3.15 0z"/>
  <path d="M412.25 43.70 c-3.70 -0.90 -6.55 -2.55 -8.90 -5.15 -2.15 -2.40 -3.70 -7.05 -2.35 -7.05 0.70 0 0.60 -3.40 -0.10 -3.60 -0.95 -0.35 0.40 -4.10 2.20 -6.20 1.80 -2 4.25 -3.40 7.65 -4.25 1.95 -0.50 2.45 -0.45 2.80 0.10 0.30 0.50 0.55 0.55 0.85 0.15 0.55 -0.85 2.05 -1.25 3.40 -0.90 1.70 0.45 1.55 1.70 -0.25 1.70 -0.80 0 -1.55 0.20 -1.65 0.50 -0.15 0.50 -5.85 1.75 -6.25 1.35 -0.25 -0.25 -1.50 0.65 -3.35 2.40 -0.95 0.95 -1 1 -0.10 1.15 0.65 0.15 0.80 0.50 0.60 1.25 -0.15 0.60 -0.30 1.25 -0.30 1.50 0 0.20 -0.70 0.35 -1.55 0.35 l-1.55 0 0.30 3.90 c0.15 2.10 0.25 4.80 0.25 6 0 1.80 0.15 2.10 1.05 2.10 0.55 0 1 -0.35 1 -0.75 0 -0.60 0.40 -0.50 1.90 0.50 1.05 0.65 3.40 1.60 5.25 2.05 1.85 0.45 3.35 1.05 3.35 1.25 0 0.65 1.90 0.55 2.10 -0.10 0.20 -0.65 1.90 0 1.90 0.75 0 1.90 -3 2.25 -8.25 1z"/>
  <path d="M295.50 43 c-2.95 -1.10 -5.45 -3 -3.85 -3 0.50 0 0.85 -0.40 0.85 -1 0 -0.95 0.10 -0.95 2 0.30 1.65 1.10 2.80 1.40 5.90 1.60 2.10 0.15 4 0.50 4.20 0.80 0.30 0.40 0.40 0.35 0.40 -0.05 0 -0.90 1.45 -0.80 1.80 0.10 0.20 0.40 0.05 1.10 -0.30 1.50 -0.70 0.85 -3 1.05 -3 0.25 0 -0.25 -0.80 -0.50 -1.75 -0.50 -0.95 0 -1.75 0.25 -1.75 0.50 0 0.75 -1.45 0.60 -4.50 -0.50z"/>
  <path d="M378.90 42.15 c-0.05 -1.85 -0.05 -1.90 -0.25 -0.25 -0.15 1 -0.45 1.60 -0.80 1.45 -0.70 -0.20 -12.40 -25.85 -12.20 -26.60 0.10 -0.25 0.75 -0.55 1.45 -0.65 1.05 -0.15 1.40 0.15 1.80 1.35 0.35 0.95 0.35 1.55 0.05 1.55 -0.25 0 -0.40 0.60 -0.40 1.40 0.05 0.85 0.15 1.05 0.30 0.45 0.15 -0.50 0.45 -0.85 0.75 -0.75 0.80 0.30 6.35 12.95 6.05 13.70 -0.15 0.40 0 0.70 0.30 0.70 0.35 0 1.05 1 1.60 2.25 0.55 1.25 1.10 2.25 1.25 2.25 0.20 0 0.70 -1 6.65 -14.35 2 -4.45 3.95 -8.20 4.30 -8.35 0.35 -0.10 1 0.05 1.45 0.35 0.75 0.55 0.55 1.20 -1.80 6.55 -2.65 5.90 -3.60 7.20 -4.05 5.45 -0.15 -0.50 -0.25 0.25 -0.25 1.60 0.05 1.95 -0.50 3.65 -2.45 8 -1.40 3 -2.80 5.55 -3.10 5.65 -0.35 0.10 -0.60 -0.55 -0.65 -1.75z"/>
  <path d="M288.90 37.95 c-1.45 -1.85 -2.90 -5.40 -2.90 -7 0 -0.60 0.35 -0.95 1 -0.95 0.65 0 1 0.35 1 0.95 0 0.50 0.30 1.05 0.70 1.20 0.95 0.35 1.95 3.35 1.15 3.35 -0.40 0 -0.40 0.15 0.05 0.45 0.40 0.25 0.60 1.10 0.50 2.10 l-0.15 1.70 -1.35 -1.80z"/>
  <path d="M86.95 34.95 c-0.30 -0.60 -0.60 -2.70 -0.60 -4.65 -0.10 -7.60 4.50 -12.05 13.55 -13.10 4.05 -0.45 5.70 0 5.50 1.45 -0.15 1 -0.50 1.15 -4.15 1.40 -2.20 0.15 -4.85 0.70 -5.95 1.15 -2.35 1 -2.30 1 -2.30 0.05 0 -0.40 -0.25 -0.75 -0.55 -0.75 -0.30 0 -0.45 0.45 -0.30 1 0.15 0.55 0.05 1.15 -0.20 1.30 -0.75 0.45 -0.50 1.70 0.30 1.70 1.70 0 0.55 1.80 -1.85 2.85 -0.80 0.35 -1.40 0.95 -1.40 1.35 0 0.40 -0.30 0.85 -0.60 0.95 -0.50 0.20 -0.50 0.35 -0.05 0.70 0.85 0.60 1.45 3.65 0.70 3.65 -0.30 0 -0.55 0.45 -0.55 1 0 1.30 -0.80 1.30 -1.55 -0.05z"/>
  <path d="M286 28.90 c0 -1.30 1.15 -4.65 1.70 -5 0.30 -0.20 1.10 -0.40 1.75 -0.40 0.90 0 1.10 0.20 0.80 0.90 -0.20 0.45 -0.60 1.65 -0.85 2.60 -0.30 0.95 -0.75 1.90 -1.10 2.10 -0.90 0.60 -2.30 0.45 -2.30 -0.20z"/>
  <path d="M95.90 27.15 c-0.50 -0.10 -0.90 -0.55 -0.90 -0.95 0 -0.55 0.95 -0.70 4.50 -0.70 2.65 0 4.50 -0.20 4.50 -0.50 0 -0.25 0.45 -0.50 1 -0.50 1.30 0 1.35 1.80 0.05 2.50 -0.95 0.50 -7.45 0.60 -9.15 0.15z"/>
  <path d="M407.50 26 c0 -0.95 0.30 -1 6.30 -1 5.70 0 6.25 0.10 6.10 0.90 -0.15 0.75 -0.90 0.85 -6.30 1 -5.85 0.10 -6.10 0.10 -6.10 -0.90z"/>
  <path d="M118.50 22.50 c0 -1.10 -0.25 -2 -0.55 -2 -1 0 -0.20 -2.15 1.15 -3.15 0.95 -0.70 2.20 -1 4.35 -1.05 3.15 -0.05 4.30 0.50 3.75 1.85 -0.35 0.90 -2.20 1.20 -2.20 0.35 0 -0.55 -1.95 -0.65 -3.20 -0.20 -0.45 0.15 -0.65 0.50 -0.50 0.75 0.15 0.25 0 0.45 -0.25 0.45 -0.30 0 -0.55 1.05 -0.55 2.50 0 2.15 -0.15 2.50 -1 2.50 -0.85 0 -1 -0.35 -1 -2z"/>
  <path d="M289.40 23.10 c-1.80 -0.20 -1.75 -0.80 0.05 -2.65 1.15 -1.15 1.95 -1.45 3.50 -1.45 1.15 0 2.05 -0.20 2.05 -0.50 0 -0.25 0.80 -0.50 1.75 -0.50 2.55 0 2.25 1.25 -0.50 1.95 -1.20 0.30 -2.95 1.20 -3.85 1.95 -1.15 0.95 -2.10 1.30 -3 1.20z"/>
  <path d="M299 18.50 c0 -0.85 0.35 -1 2 -1 2.25 0 2.85 1.15 0.90 1.70 -2.10 0.55 -2.90 0.35 -2.90 -0.70z"/>
  <path d="M410 14.30 c0 -0.85 0.50 -1.55 1.70 -2.25 2 -1.25 2.30 -1.30 2.30 -0.30 0 0.40 0.25 0.75 0.55 0.75 0.35 0 0.45 -0.45 0.30 -1.10 -0.25 -0.90 0.05 -1.40 1.45 -2.30 2.05 -1.35 3.40 -1.25 3.55 0.15 0.10 0.75 -0.85 1.65 -3.95 3.65 -4.60 2.90 -5.90 3.25 -5.90 1.40z"/>
  <path d="M319.50 8.35 c0 -1.50 0.85 -2.30 2.05 -2 0.95 0.25 1.35 1.65 0.45 1.65 -0.25 0 -0.50 0.35 -0.50 0.75 0 0.40 -0.45 0.75 -1 0.75 -0.70 0 -1 -0.35 -1 -1.15z"/>
 </g>
 <g fill="#ffffff">
  <path d="M18.25 44.55 c-6.85 -0.70 -11.75 -6.75 -11.75 -14.50 0.05 -6.70 5.85 -12.65 13.15 -13.40 3.35 -0.35 5.75 0.40 7.60 2.35 l1.45 1.50 0.15 9.10 c0.10 5.05 0 10.50 -0.20 12.15 -0.35 2.60 -0.55 3 -1.40 2.85 -1.10 -0.15 -1.15 -0.15 -4 0.10 -1.10 0.10 -3.35 0.05 -5 -0.15z m6.60 -23.95 c-0.95 -0.95 -1.70 -1.15 -3.95 -1.15 -3.60 0 -5.85 0.95 -8.60 3.70 -4.25 4.30 -4.35 10.35 -0.25 15.05 2.45 2.80 4.60 3.80 8.30 3.85 1.60 0.05 3.45 0.20 4.15 0.40 l1.25 0.35 0.15 -10.50 c0.10 -10.45 0.10 -10.50 -1.05 -11.70z"/>
  <path d="M41.30 43.45 c-0.15 -0.85 -0.30 -6.70 -0.30 -13 0 -9.35 0.15 -11.50 0.75 -12.10 0.40 -0.40 2.25 -1 4.10 -1.30 3.90 -0.65 7.85 -0.15 10.45 1.40 1.65 0.95 1.65 0.95 2.90 0 0.65 -0.55 2.30 -1.15 3.55 -1.40 2.55 -0.50 8 0 9.60 0.85 1.45 0.80 4.10 3.90 4.40 5.25 0.15 0.60 0.20 5.70 0.15 11.35 -0.15 9.85 -0.20 10.25 -1.15 10.25 -0.95 0 -1 -0.40 -1.25 -10.65 l-0.25 -10.65 -2.10 -2 c-2.05 -1.90 -2.25 -1.95 -5.60 -1.95 -1.95 0 -4.10 0.25 -4.80 0.60 l-1.25 0.55 0 11.95 0 11.90 -1.25 0 -1.25 0 0 -10.70 0 -10.75 -1.35 -1.05 c-2.90 -2.30 -6.80 -3.05 -11.10 -2.20 l-1.55 0.30 0 11.35 c0 6.20 -0.15 11.80 -0.30 12.45 -0.45 1.70 -2 1.40 -2.40 -0.45z"/>
  <path d="M320 43.70 c-0.55 -1.35 -0.70 -34.15 -0.20 -36.05 0.20 -0.80 0.70 -1.15 1.50 -1.15 l1.20 0 0 18.95 c0 16.80 -0.10 19 -0.80 19.25 -1.15 0.45 -1.20 0.40 -1.70 -1z"/>
  <path d="M97.20 43.55 c-7.25 -2.10 -10.65 -6.25 -10.70 -13.20 0 -7.50 4 -11.60 12.70 -12.90 3.80 -0.55 6.30 -0.10 6.30 1.20 0 0.50 -1 0.80 -3.35 1.05 -1.90 0.20 -4.30 0.55 -5.35 0.85 -2.25 0.60 -5.80 2.70 -5.80 3.45 0 0.30 2.90 0.50 7.50 0.50 5.65 0 7.50 0.15 7.50 0.65 -0.05 1.65 -0.80 1.80 -8.75 1.95 l-8 0.15 -0.15 2.15 c-0.50 6.95 4.50 11.60 13.40 12.40 3.70 0.35 4.20 0.60 3.70 1.90 -0.40 1.10 -4.95 1 -9 -0.15z"/>
  <path d="M117.85 44.15 c-0.45 -0.40 -0.45 -24.30 -0.05 -25.40 0.55 -1.35 3 -2.25 6.20 -2.25 2.90 0 3.05 0.05 2.90 1.15 -0.15 0.95 -0.50 1.15 -3 1.35 -1.55 0.15 -3 0.45 -3.20 0.65 -0.20 0.20 -0.35 5.25 -0.25 11.25 0.05 5.95 -0.05 11.50 -0.20 12.25 -0.35 1.25 -1.60 1.80 -2.40 1z"/>
  <path d="M137.85 44.15 c-0.60 -0.55 -0.40 -26.10 0.20 -27.25 0.40 -0.70 0.40 -1.15 0 -1.55 -1.25 -1.25 0.05 -4.50 1.45 -3.60 0.70 0.45 0.65 3.60 -0.10 3.90 -0.50 0.20 -0.50 0.35 0 0.90 0.45 0.50 0.60 4.05 0.60 14.30 0 12.90 -0.05 13.65 -0.90 13.65 -0.50 0 -1.10 -0.15 -1.25 -0.35z"/>
  <path d="M160.10 43.20 c-3.15 -1.55 -6.70 -5.40 -7.50 -8.10 -0.85 -2.80 -0.70 -7.50 0.35 -10 2.10 -5.15 6.35 -7.50 14.05 -7.75 4 -0.10 4.25 -0.05 4.40 0.95 0.15 1 -0.15 1.10 -3.75 1.40 -7.65 0.70 -10.05 1.90 -11.95 6 -1.65 3.50 -1.60 6.70 0.15 9.85 2.40 4.45 6.40 6.45 12.75 6.45 2.70 0 3.50 0.15 3.75 0.80 0.50 1.30 -0.80 1.70 -5.40 1.70 -3.60 0 -4.65 -0.20 -6.85 -1.30z"/>
  <path d="M187.75 43.30 c-6.30 -2.90 -9.50 -10.20 -7.55 -17.05 1.10 -3.70 4.85 -7.65 8.50 -8.90 3 -1.05 7.85 -1.10 9.70 -0.15 3.15 1.65 3.20 1.70 3.15 13.40 0 5.85 0 11.35 0 12.20 l-0.05 1.55 -5.60 0.10 c-5 0.05 -5.95 -0.10 -8.15 -1.15z m11 -22.15 c-0.30 -1.20 -2.55 -2.15 -5.20 -2.15 -3.75 0 -9.25 3.80 -10.60 7.35 -0.75 2 -0.50 6.75 0.50 8.90 1.15 2.55 4.45 5.55 6.90 6.20 1.05 0.30 3.20 0.55 4.80 0.55 2.25 0 2.95 0.20 3.25 0.90 0.40 1 0.75 -20.10 0.35 -21.75z"/>
  <path d="M215.35 44.15 c-0.20 -0.15 -0.35 -6.15 -0.35 -13.25 l0 -12.90 1.40 -0.60 c0.75 -0.30 3.20 -0.65 5.50 -0.80 3.70 -0.20 4.40 -0.05 6.85 1.15 1.50 0.70 3.25 2.05 3.85 2.90 1.10 1.55 1.15 1.95 1.15 12.60 0 10.35 -0.05 11 -0.95 11.15 -0.50 0.10 -1.10 -0.10 -1.35 -0.50 -0.25 -0.35 -0.45 -5.30 -0.45 -10.95 0 -11.70 0.10 -11.45 -4.65 -13.20 -2.25 -0.85 -6.95 -0.85 -8.35 0 -0.30 0.20 -0.50 4.70 -0.50 12.55 0 11.50 -0.05 12.20 -0.90 12.20 -0.50 0 -1.10 -0.15 -1.25 -0.35z"/>
  <path d="M342.85 43.80 c-7 -2.55 -10.95 -10.60 -8.75 -17.90 0.80 -2.75 4.60 -6.80 7.65 -8.20 2.95 -1.40 8.45 -1.65 10.65 -0.50 3.05 1.60 3.05 1.60 3.10 13.55 0 6.05 0.05 11.60 0 12.30 l0 1.25 -5.35 0.10 c-3.45 0.05 -6.10 -0.20 -7.30 -0.60z m9.95 -22.60 c-0.50 -2 -4.40 -2.80 -8.35 -1.70 -2.15 0.60 -6.15 4 -7.30 6.20 -1.15 2.25 -1.05 7.05 0.25 9.60 1.25 2.40 4.55 5.55 6.35 6 0.75 0.20 3.05 0.45 5.15 0.65 l3.85 0.30 0.15 -10 c0.05 -5.50 0 -10.45 -0.10 -11.05z"/>
  <path d="M376.80 41.90 c-0.65 -1.45 -3.35 -7.45 -6 -13.30 -2.65 -5.80 -4.80 -11.05 -4.80 -11.60 0 -0.65 0.35 -1 1 -1 1.15 0 1.25 0.20 7.40 13.95 2.15 4.80 4.15 8.80 4.40 8.90 0.25 0.05 1.60 -2.50 3.05 -5.75 7 -15.80 7.40 -16.60 8.30 -16.60 2.05 0 1.70 0.95 -7 20.25 -1.60 3.60 -3.10 6.80 -3.30 7.15 -0.80 1.25 -1.90 0.55 -3.05 -2z"/>
  <path d="M413.15 43.75 c-8.35 -1.80 -12.65 -6.60 -12.65 -14.20 0 -5.10 2 -8.25 6.85 -10.65 3 -1.45 3.80 -1.65 7.60 -1.65 4.10 0 4.30 0.05 4.45 1.15 0.15 1.05 0 1.10 -2.80 1.10 -3.80 0 -9.05 1.60 -10.60 3.25 l-1.15 1.20 7.45 0.15 c7.30 0.15 7.45 0.15 7.60 1.30 0.10 0.60 0 1.10 -0.25 1.15 -0.20 0 -3.85 0.10 -8.10 0.15 l-7.70 0.05 -0.45 1.25 c-0.55 1.45 -0.10 5.20 0.85 7 1.80 3.45 6.55 6 11.85 6.40 3.85 0.25 5.30 1.20 3.65 2.40 -1.15 0.85 -2.50 0.85 -6.60 -0.05z"/>
  <path d="M296.25 43.20 c-4.65 -1.45 -8.10 -5.15 -9.60 -10.15 -1.50 -5.15 0.65 -11.35 4.80 -14.05 2.85 -1.80 5.70 -2.45 10.70 -2.50 3.75 0 3.90 0.05 3.75 1.10 -0.15 1.05 -0.55 1.20 -5.15 1.70 -6.50 0.75 -7.80 1.30 -9.75 4 -1.20 1.70 -1.65 2.95 -1.85 5.15 -0.35 3.65 0.45 6.10 2.80 8.70 2.70 3 5.45 4.05 10.40 4 4.15 -0.05 5.05 0.35 4.15 1.90 -0.65 1 -7.15 1.10 -10.25 0.15z"/>
  <path d="M410.20 14.75 c-0.45 -1.10 0.45 -1.95 4.60 -4.55 3.55 -2.20 5.20 -2.55 5.20 -1.05 0 0.75 -7.90 6.35 -8.95 6.35 -0.30 0 -0.70 -0.35 -0.85 -0.75z"/>
 </g>
</svg>